<svg width="122" height="131" viewBox="0 0 122 131" fill="none" xmlns="http://www.w3.org/2000/svg">
<g filter="url(#filter0_d_12_2)">
<path fill-rule="evenodd" clip-rule="evenodd" d="M72.5811 0.163112C94.9697 1.80641 104.799 26.3434 112.074 48.4633C119.918 72.3146 130.323 101.739 110.963 116.868C91.1783 132.33 65.7467 115.468 45.7659 100.282C25.9618 85.2306 4.63118 65.6598 11.2196 41.0607C18.4345 14.1226 45.8025 -1.8024 72.5811 0.163112Z" fill="url(#paint0_radial_12_2)"/>
</g>
<path d="M97.8675 73.2675C97.215 72.5725 94.9113 70.5175 90.6763 67.7987C86.41 65.0562 83.2638 63.3462 82.3613 62.9475C82.2817 62.9122 82.1941 62.8993 82.1078 62.9101C82.0214 62.9209 81.9397 62.955 81.8713 63.0087C80.4175 64.1425 77.97 66.225 77.8388 66.3375C76.9913 67.0637 76.9913 67.0637 76.2975 66.8375C75.0775 66.4375 71.2875 64.425 67.985 61.115C64.6825 57.805 62.5663 53.9212 62.1663 52.7025C61.9375 52.0075 61.9375 52.0075 62.6663 51.16C62.7788 51.0287 64.8625 48.5812 65.9963 47.1287C66.05 47.0603 66.0842 46.9786 66.095 46.8922C66.1057 46.8059 66.0928 46.7183 66.0575 46.6387C65.6588 45.735 63.9488 42.59 61.2063 38.3237C58.4838 34.09 56.4313 31.7862 55.7363 31.1337C55.6725 31.0736 55.5937 31.0317 55.5081 31.0125C55.4225 30.9934 55.3334 30.9977 55.25 31.025C52.8206 31.8598 50.4766 32.9251 48.25 34.2062C46.1006 35.4558 44.0656 36.8926 42.1688 38.5C42.1026 38.5563 42.0529 38.6295 42.0252 38.7119C41.9974 38.7942 41.9926 38.8826 42.0113 38.9675C42.2725 40.185 43.5213 45.2675 47.3963 52.3075C51.35 59.4925 54.09 63.1737 59.8963 68.96C65.7025 74.7462 69.5 77.6512 76.6925 81.605C83.7325 85.48 88.8175 86.73 90.0325 86.9887C90.1176 87.0072 90.2061 87.0023 90.2886 86.9746C90.3711 86.9469 90.4446 86.8973 90.5013 86.8312C92.1084 84.9345 93.5448 82.8995 94.7938 80.75C96.0747 78.5233 97.1399 76.1793 97.975 73.75C98.0017 73.6673 98.0059 73.5789 97.987 73.4941C97.9681 73.4093 97.9268 73.331 97.8675 73.2675Z" fill="#FFFDFD"/>
<defs>
<filter id="filter0_d_12_2" x="0" y="0" width="122" height="131" filterUnits="userSpaceOnUse" color-interpolation-filters="sRGB">
<feFlood flood-opacity="0" result="BackgroundImageFix"/>
<feColorMatrix in="SourceAlpha" type="matrix" values="0 0 0 0 0 0 0 0 0 0 0 0 0 0 0 0 0 0 127 0" result="hardAlpha"/>
<feOffset dx="-6" dy="4"/>
<feGaussianBlur stdDeviation="2"/>
<feComposite in2="hardAlpha" operator="out"/>
<feColorMatrix type="matrix" values="0 0 0 0 0 0 0 0 0 0 0 0 0 0 0 0 0 0 0.25 0"/>
<feBlend mode="normal" in2="BackgroundImageFix" result="effect1_dropShadow_12_2"/>
<feBlend mode="normal" in="SourceGraphic" in2="effect1_dropShadow_12_2" result="shape"/>
</filter>
<radialGradient id="paint0_radial_12_2" cx="0" cy="0" r="1" gradientUnits="userSpaceOnUse" gradientTransform="translate(66 61.5) rotate(90) scale(61.5 56)">
<stop stop-color="#0007A7"/>
<stop offset="1" stop-color="#02089A"/>
</radialGradient>
</defs>
</svg>
