<svg width="311" height="50" viewBox="0 0 311 50" fill="none" xmlns="http://www.w3.org/2000/svg">
<g filter="url(#filter0_d_17_5)">
<path d="M6.83415 4.20129C7.25504 1.78081 9.37207 0.0247325 11.8286 0.058349L153.718 2L299.577 0.0581515C302.078 0.0248444 304.22 1.84592 304.589 4.32062L306.893 19.7801C306.964 20.2575 306.966 20.7427 306.898 21.2207L304.555 37.7035C304.205 40.1684 302.095 42 299.605 42H155.755H11.804C9.35817 42 7.27135 40.2307 6.8713 37.8178L4.1389 21.3378C4.04696 20.7832 4.04918 20.2171 4.14548 19.6633L6.83415 4.20129Z" fill="#011C50"/>
</g>
<path d="M86.5107 35H81.8232L81.8525 31.3086H86.5107C87.5752 31.3086 88.4736 31.0645 89.2061 30.5762C89.9385 30.0781 90.4951 29.3457 90.876 28.3789C91.2568 27.4023 91.4473 26.2158 91.4473 24.8193V23.8379C91.4473 22.7832 91.3398 21.8555 91.125 21.0547C90.9102 20.2441 90.5928 19.5654 90.1729 19.0186C89.7529 18.4717 89.2305 18.0615 88.6055 17.7881C87.9902 17.5146 87.2822 17.3779 86.4814 17.3779H81.7354V13.6719H86.4814C87.9268 13.6719 89.2451 13.916 90.4365 14.4043C91.6377 14.8926 92.6729 15.5908 93.542 16.499C94.4209 17.4072 95.0996 18.4814 95.5781 19.7217C96.0566 20.9619 96.2959 22.3438 96.2959 23.8672V24.8193C96.2959 26.333 96.0566 27.7148 95.5781 28.9648C95.0996 30.2051 94.4209 31.2793 93.542 32.1875C92.6729 33.0859 91.6426 33.7793 90.4512 34.2676C89.2598 34.7559 87.9463 35 86.5107 35ZM84.5332 13.6719V35H79.7578V13.6719H84.5332ZM117.741 29.375C117.741 29.0137 117.688 28.6914 117.58 28.4082C117.473 28.1152 117.277 27.8467 116.994 27.6025C116.711 27.3584 116.311 27.1143 115.793 26.8701C115.275 26.6162 114.597 26.3574 113.757 26.0938C112.8 25.7812 111.887 25.4297 111.018 25.0391C110.158 24.6387 109.392 24.1748 108.718 23.6475C108.044 23.1201 107.512 22.5049 107.121 21.8018C106.74 21.0986 106.55 20.2783 106.55 19.3408C106.55 18.4326 106.75 17.6123 107.15 16.8799C107.551 16.1475 108.112 15.5225 108.835 15.0049C109.558 14.4775 110.407 14.0771 111.384 13.8037C112.36 13.5205 113.435 13.3789 114.606 13.3789C116.169 13.3789 117.541 13.6572 118.723 14.2139C119.914 14.7607 120.842 15.5322 121.506 16.5283C122.17 17.5146 122.502 18.6621 122.502 19.9707H117.756C117.756 19.3945 117.634 18.8867 117.39 18.4473C117.155 17.998 116.794 17.6465 116.306 17.3926C115.827 17.1387 115.227 17.0117 114.504 17.0117C113.801 17.0117 113.21 17.1191 112.731 17.334C112.263 17.5391 111.906 17.8223 111.662 18.1836C111.428 18.5449 111.311 18.9404 111.311 19.3701C111.311 19.7119 111.398 20.0244 111.574 20.3076C111.76 20.5811 112.023 20.8398 112.365 21.084C112.717 21.3184 113.146 21.543 113.654 21.7578C114.162 21.9727 114.743 22.1777 115.397 22.373C116.54 22.7344 117.551 23.1348 118.43 23.5742C119.318 24.0137 120.065 24.5117 120.671 25.0684C121.276 25.625 121.73 26.2549 122.033 26.958C122.346 27.6611 122.502 28.457 122.502 29.3457C122.502 30.293 122.316 31.1328 121.945 31.8652C121.584 32.5977 121.057 33.2227 120.363 33.7402C119.68 34.248 118.859 34.6338 117.902 34.8975C116.945 35.1611 115.876 35.293 114.694 35.293C113.62 35.293 112.561 35.1562 111.516 34.8828C110.471 34.5996 109.523 34.1699 108.674 33.5938C107.834 33.0176 107.16 32.2852 106.652 31.3965C106.154 30.498 105.905 29.4336 105.905 28.2031H110.681C110.681 28.8477 110.773 29.3945 110.959 29.8438C111.145 30.2832 111.408 30.6396 111.75 30.9131C112.102 31.1865 112.526 31.3818 113.024 31.499C113.522 31.6162 114.079 31.6748 114.694 31.6748C115.407 31.6748 115.983 31.5771 116.423 31.3818C116.872 31.1768 117.204 30.8984 117.419 30.5469C117.634 30.1953 117.741 29.8047 117.741 29.375ZM141.896 13.6719V35H137.136V13.6719H141.896ZM148.386 13.6719V17.3779H130.778V13.6719H148.386ZM174.987 13.6719V35H170.227L162.17 21.2158V35H157.395V13.6719H162.17L170.241 27.4561V13.6719H174.987ZM203.171 23.7354V32.334C202.819 32.7344 202.282 33.1641 201.56 33.623C200.847 34.082 199.934 34.4775 198.82 34.8096C197.707 35.1318 196.379 35.293 194.836 35.293C193.439 35.293 192.17 35.0684 191.027 34.6191C189.885 34.1602 188.903 33.4912 188.083 32.6123C187.263 31.7236 186.628 30.6396 186.179 29.3604C185.739 28.0811 185.52 26.6162 185.52 24.9658V23.7061C185.52 22.0557 185.739 20.5908 186.179 19.3115C186.618 18.0322 187.238 16.9531 188.039 16.0742C188.84 15.1855 189.792 14.5117 190.896 14.0527C191.999 13.5938 193.22 13.3643 194.558 13.3643C196.462 13.3643 198.02 13.6719 199.23 14.2871C200.441 14.8926 201.359 15.7324 201.984 16.8066C202.619 17.8809 203.01 19.1162 203.156 20.5127H198.557C198.459 19.7998 198.264 19.1846 197.971 18.667C197.688 18.1494 197.282 17.7539 196.755 17.4805C196.228 17.1973 195.544 17.0557 194.704 17.0557C194.03 17.0557 193.42 17.1973 192.873 17.4805C192.336 17.7539 191.882 18.1689 191.511 18.7256C191.14 19.2822 190.856 19.9756 190.661 20.8057C190.466 21.626 190.368 22.583 190.368 23.6768V24.9658C190.368 26.0596 190.466 27.0215 190.661 27.8516C190.866 28.6816 191.164 29.375 191.555 29.9316C191.945 30.4785 192.438 30.8936 193.034 31.1768C193.64 31.46 194.343 31.6016 195.144 31.6016C195.769 31.6016 196.296 31.5527 196.726 31.4551C197.155 31.3477 197.507 31.2158 197.78 31.0596C198.054 30.8936 198.259 30.7422 198.396 30.6055V27.0605H194.602V23.7354H203.171ZM231.691 23.8672V24.8193C231.691 26.4404 231.467 27.8955 231.018 29.1846C230.578 30.4736 229.948 31.5723 229.128 32.4805C228.317 33.3887 227.351 34.0869 226.228 34.5752C225.114 35.0537 223.879 35.293 222.521 35.293C221.164 35.293 219.924 35.0537 218.801 34.5752C217.678 34.0869 216.701 33.3887 215.871 32.4805C215.051 31.5723 214.416 30.4736 213.967 29.1846C213.518 27.8955 213.293 26.4404 213.293 24.8193V23.8672C213.293 22.2461 213.518 20.791 213.967 19.502C214.416 18.2031 215.046 17.0996 215.856 16.1914C216.677 15.2832 217.648 14.5898 218.771 14.1113C219.895 13.623 221.135 13.3789 222.492 13.3789C223.85 13.3789 225.09 13.623 226.213 14.1113C227.336 14.5898 228.303 15.2832 229.113 16.1914C229.934 17.0996 230.568 18.2031 231.018 19.502C231.467 20.791 231.691 22.2461 231.691 23.8672ZM226.872 24.8193V23.8379C226.872 22.7539 226.774 21.7969 226.579 20.9668C226.384 20.127 226.101 19.4238 225.729 18.8574C225.358 18.291 224.899 17.8662 224.353 17.583C223.806 17.29 223.186 17.1436 222.492 17.1436C221.77 17.1436 221.14 17.29 220.603 17.583C220.065 17.8662 219.611 18.291 219.24 18.8574C218.879 19.4238 218.601 20.127 218.405 20.9668C218.22 21.7969 218.127 22.7539 218.127 23.8379V24.8193C218.127 25.8936 218.22 26.8506 218.405 27.6904C218.601 28.5205 218.884 29.2236 219.255 29.7998C219.626 30.376 220.08 30.8105 220.617 31.1035C221.164 31.3965 221.799 31.543 222.521 31.543C223.215 31.543 223.83 31.3965 224.367 31.1035C224.914 30.8105 225.373 30.376 225.744 29.7998C226.115 29.2236 226.394 28.5205 226.579 27.6904C226.774 26.8506 226.872 25.8936 226.872 24.8193Z" fill="white"/>
<defs>
<filter id="filter0_d_17_5" x="0.0715332" y="0.0577087" width="310.876" height="49.9423" filterUnits="userSpaceOnUse" color-interpolation-filters="sRGB">
<feFlood flood-opacity="0" result="BackgroundImageFix"/>
<feColorMatrix in="SourceAlpha" type="matrix" values="0 0 0 0 0 0 0 0 0 0 0 0 0 0 0 0 0 0 127 0" result="hardAlpha"/>
<feOffset dy="4"/>
<feGaussianBlur stdDeviation="2"/>
<feComposite in2="hardAlpha" operator="out"/>
<feColorMatrix type="matrix" values="0 0 0 0 0 0 0 0 0 0 0 0 0 0 0 0 0 0 0.25 0"/>
<feBlend mode="normal" in2="BackgroundImageFix" result="effect1_dropShadow_17_5"/>
<feBlend mode="normal" in="SourceGraphic" in2="effect1_dropShadow_17_5" result="shape"/>
</filter>
</defs>
</svg>
